<svg xmlns="http://www.w3.org/2000/svg" width="194" height="43" viewBox="0 0 194 43" fill="none"><path fill-rule="evenodd" clip-rule="evenodd" d="M0.375 34.0176L9.75229 40.8068V29.1133L0.375 34.0176Z" fill="#04B2B2"></path><path fill-rule="evenodd" clip-rule="evenodd" d="M0 32.0181L22.7212 20.1558V12.3633L0 24.2255V32.0181Z" fill="#04B2B2"></path><path fill-rule="evenodd" clip-rule="evenodd" d="M0 21.8825L22.7212 10.0202V2.25586L0 14.1181V21.8825Z" fill="#04B2B2"></path><path d="M36.7607 11.5312H51.5207V14.9212H40.8107V20.2612H48.8207V23.5312H40.8107V32.5312H36.7607V11.5312ZM54.3346 17.5312H57.8146L58.0846 19.4512C58.5046 18.9312 58.9746 18.5112 59.4946 18.1912C60.0346 17.8512 60.6246 17.6212 61.2646 17.5012C61.9046 17.3612 62.5746 17.3712 63.2746 17.5312V21.1312C62.7346 20.9512 62.1646 20.9012 61.5646 20.9812C60.9846 21.0612 60.4346 21.2712 59.9146 21.6112C59.4146 21.9512 58.9946 22.4412 58.6546 23.0812C58.3346 23.7012 58.1746 24.4912 58.1746 25.4512V32.5312H54.3346V17.5312ZM72.2481 32.7413C70.7481 32.7413 69.4281 32.4112 68.2881 31.7512C67.1481 31.0912 66.2581 30.1712 65.6181 28.9912C64.9981 27.8112 64.6881 26.4512 64.6881 24.9112C64.6881 23.4312 64.9981 22.1212 65.6181 20.9812C66.2581 19.8412 67.1281 18.9512 68.2281 18.3112C69.3281 17.6512 70.5881 17.3212 72.0081 17.3212C73.4481 17.3212 74.7181 17.6312 75.8181 18.2512C76.9181 18.8712 77.7681 19.7412 78.3681 20.8612C78.9881 21.9612 79.2981 23.2512 79.2981 24.7312C79.2981 24.9512 79.2781 25.2012 79.2381 25.4812C79.2181 25.7412 79.1881 26.0212 79.1481 26.3212H68.8281C68.9081 26.9612 69.1081 27.5112 69.4281 27.9712C69.7681 28.4112 70.1781 28.7612 70.6581 29.0212C71.1581 29.2612 71.7181 29.3812 72.3381 29.3812C73.0781 29.3812 73.7381 29.2312 74.3181 28.9312C74.9181 28.6312 75.3481 28.2212 75.6081 27.7012L78.9981 28.7212C78.3981 30.0012 77.5081 30.9912 76.3281 31.6912C75.1481 32.3912 73.7881 32.7413 72.2481 32.7413ZM75.0981 23.5312C75.0781 22.9712 74.9281 22.4712 74.6481 22.0312C74.3681 21.5712 73.9981 21.2212 73.5381 20.9812C73.0781 20.7212 72.5681 20.5912 72.0081 20.5912C71.5081 20.5912 71.0381 20.7212 70.5981 20.9812C70.1581 21.2212 69.7781 21.5612 69.4581 22.0012C69.1581 22.4412 68.9581 22.9512 68.8581 23.5312H75.0981ZM89.0352 32.7413C87.5352 32.7413 86.2152 32.4112 85.0752 31.7512C83.9352 31.0912 83.0452 30.1712 82.4052 28.9912C81.7852 27.8112 81.4752 26.4512 81.4752 24.9112C81.4752 23.4312 81.7852 22.1212 82.4052 20.9812C83.0452 19.8412 83.9152 18.9512 85.0152 18.3112C86.1152 17.6512 87.3752 17.3212 88.7952 17.3212C90.2352 17.3212 91.5052 17.6312 92.6052 18.2512C93.7052 18.8712 94.5552 19.7412 95.1552 20.8612C95.7752 21.9612 96.0852 23.2512 96.0852 24.7312C96.0852 24.9512 96.0652 25.2012 96.0252 25.4812C96.0052 25.7412 95.9752 26.0212 95.9352 26.3212H85.6152C85.6952 26.9612 85.8952 27.5112 86.2152 27.9712C86.5552 28.4112 86.9652 28.7612 87.4452 29.0212C87.9452 29.2612 88.5052 29.3812 89.1252 29.3812C89.8652 29.3812 90.5252 29.2312 91.1052 28.9312C91.7052 28.6312 92.1352 28.2212 92.3952 27.7012L95.7852 28.7212C95.1852 30.0012 94.2952 30.9912 93.1152 31.6912C91.9352 32.3912 90.5752 32.7413 89.0352 32.7413ZM91.8852 23.5312C91.8652 22.9712 91.7152 22.4712 91.4352 22.0312C91.1552 21.5712 90.7852 21.2212 90.3252 20.9812C89.8652 20.7212 89.3552 20.5912 88.7952 20.5912C88.2952 20.5912 87.8252 20.7212 87.3852 20.9812C86.9452 21.2212 86.5652 21.5612 86.2452 22.0012C85.9452 22.4412 85.7452 22.9512 85.6452 23.5312H91.8852ZM99.0123 10.9312H102.852V32.5312H99.0123V10.9312ZM115.362 32.5312L115.062 30.7012C114.562 31.3212 113.992 31.8112 113.352 32.1712C112.732 32.5312 111.892 32.7113 110.832 32.7113C109.832 32.7113 108.952 32.5412 108.192 32.2012C107.452 31.8412 106.872 31.3512 106.452 30.7312C106.032 30.0912 105.822 29.3412 105.822 28.4812C105.822 27.2212 106.272 26.1812 107.172 25.3612C108.092 24.5212 109.472 23.9912 111.312 23.7712L115.062 23.3512V22.3012C115.062 21.8812 114.872 21.4912 114.492 21.1312C114.112 20.7712 113.512 20.5912 112.692 20.5912C111.972 20.5912 111.342 20.7712 110.802 21.1312C110.282 21.4712 109.932 21.9912 109.752 22.6912L106.452 21.4912C106.852 20.1512 107.612 19.1212 108.732 18.4012C109.852 17.6812 111.232 17.3212 112.872 17.3212C114.872 17.3212 116.372 17.8212 117.372 18.8212C118.392 19.8012 118.902 21.1012 118.902 22.7212V32.5312H115.362ZM115.062 26.0212L111.822 26.4412C111.162 26.5212 110.662 26.7212 110.322 27.0412C109.982 27.3412 109.812 27.7112 109.812 28.1512C109.812 28.5712 109.982 28.9312 110.322 29.2312C110.662 29.5112 111.142 29.6512 111.762 29.6512C112.462 29.6512 113.052 29.5212 113.532 29.2612C114.032 29.0012 114.412 28.6212 114.672 28.1213C114.932 27.6212 115.062 27.0012 115.062 26.2612V26.0212ZM122.421 17.5312H125.901L126.171 19.0612C126.651 18.5212 127.231 18.1012 127.911 17.8012C128.611 17.4812 129.361 17.3212 130.161 17.3212C131.341 17.3212 132.341 17.5712 133.161 18.0712C134.001 18.5712 134.641 19.3012 135.081 20.2612C135.541 21.2012 135.771 22.3712 135.771 23.7712V32.5312H131.901V24.2812C131.901 23.1212 131.671 22.2512 131.211 21.6712C130.751 21.0912 130.061 20.8012 129.141 20.8012C128.201 20.8012 127.481 21.1012 126.981 21.7012C126.501 22.2812 126.261 23.1512 126.261 24.3112V32.5312H122.421V17.5312ZM139.417 11.5312H143.467V20.2012H152.767V11.5312H156.817V32.5312H152.767V23.5912H143.467V32.5312H139.417V11.5312ZM173.882 32.5312H170.372L170.132 30.9712C169.632 31.5312 169.032 31.9712 168.332 32.2912C167.652 32.5913 166.922 32.7413 166.142 32.7413C164.982 32.7413 163.982 32.4912 163.142 31.9912C162.302 31.4912 161.652 30.7712 161.192 29.8312C160.732 28.8712 160.502 27.6912 160.502 26.2912V17.5312H164.372V25.8112C164.372 26.9512 164.592 27.8212 165.032 28.4212C165.492 29.0012 166.192 29.2912 167.132 29.2912C168.072 29.2912 168.792 28.9912 169.292 28.3912C169.792 27.7912 170.042 26.9212 170.042 25.7812V17.5312H173.882V32.5312ZM180.917 19.7812C181.377 19.1012 182.027 18.5212 182.867 18.0412C183.727 17.5612 184.737 17.3212 185.897 17.3212C187.217 17.3212 188.367 17.6412 189.347 18.2812C190.347 18.9012 191.127 19.7912 191.687 20.9512C192.267 22.1112 192.557 23.4712 192.557 25.0312C192.557 26.5912 192.267 27.9512 191.687 29.1112C191.127 30.2512 190.347 31.1412 189.347 31.7812C188.347 32.4213 187.197 32.7413 185.897 32.7413C184.857 32.7413 183.937 32.5413 183.137 32.1412C182.337 31.7212 181.717 31.2312 181.277 30.6712L181.037 32.5312H177.557V10.9312H181.397V19.8412L180.917 19.7812ZM188.417 25.0312C188.417 23.7712 188.087 22.7612 187.427 22.0012C186.787 21.2212 185.947 20.8312 184.907 20.8312C184.267 20.8312 183.677 21.0012 183.137 21.3412C182.617 21.6612 182.197 22.1312 181.877 22.7512C181.557 23.3712 181.397 24.1312 181.397 25.0312C181.397 25.9312 181.557 26.6912 181.877 27.3112C182.197 27.9312 182.617 28.4112 183.137 28.7512C183.677 29.0712 184.267 29.2312 184.907 29.2312C185.947 29.2312 186.787 28.8512 187.427 28.0912C188.087 27.3112 188.417 26.2912 188.417 25.0312Z" fill="#151515"></path></svg>