<svg xmlns="http://www.w3.org/2000/svg" width="194" height="42" viewBox="0 0 194 42" fill="none"><path fill-rule="evenodd" clip-rule="evenodd" d="M0.375092 33.4854L9.75238 40.2745V28.5811L0.375092 33.4854Z" fill="#04B2B2"></path><path fill-rule="evenodd" clip-rule="evenodd" d="M0 31.4878L22.7212 19.6255V11.833L0 23.6953V31.4878Z" fill="#04B2B2"></path><path fill-rule="evenodd" clip-rule="evenodd" d="M0 21.3513L22.7212 9.48899V1.72461L0 13.5869V21.3513Z" fill="#04B2B2"></path><path d="M36.7612 11H51.5212V14.39H40.8112V19.73H48.8212V23H40.8112V32H36.7612V11ZM54.3351 17H57.8151L58.0851 18.92C58.5051 18.4 58.9751 17.98 59.4951 17.66C60.0351 17.32 60.6251 17.09 61.2651 16.97C61.9051 16.83 62.5751 16.84 63.2751 17V20.6C62.7351 20.42 62.1651 20.37 61.5651 20.45C60.9851 20.53 60.4351 20.74 59.9151 21.08C59.4151 21.42 58.9951 21.91 58.6551 22.55C58.3351 23.17 58.1751 23.96 58.1751 24.92V32H54.3351V17ZM72.2486 32.21C70.7486 32.21 69.4286 31.88 68.2886 31.22C67.1486 30.56 66.2586 29.64 65.6186 28.46C64.9986 27.28 64.6886 25.92 64.6886 24.38C64.6886 22.9 64.9986 21.59 65.6186 20.45C66.2586 19.31 67.1286 18.42 68.2286 17.78C69.3286 17.12 70.5886 16.79 72.0086 16.79C73.4486 16.79 74.7186 17.1 75.8186 17.72C76.9186 18.34 77.7686 19.21 78.3686 20.33C78.9886 21.43 79.2986 22.72 79.2986 24.2C79.2986 24.42 79.2786 24.67 79.2386 24.95C79.2186 25.21 79.1886 25.49 79.1486 25.79H68.8286C68.9086 26.43 69.1086 26.98 69.4286 27.44C69.7686 27.88 70.1786 28.23 70.6586 28.49C71.1586 28.73 71.7186 28.85 72.3386 28.85C73.0786 28.85 73.7386 28.7 74.3186 28.4C74.9186 28.1 75.3486 27.69 75.6086 27.17L78.9986 28.19C78.3986 29.47 77.5086 30.46 76.3286 31.16C75.1486 31.86 73.7886 32.21 72.2486 32.21ZM75.0986 23C75.0786 22.44 74.9286 21.94 74.6486 21.5C74.3686 21.04 73.9986 20.69 73.5386 20.45C73.0786 20.19 72.5686 20.06 72.0086 20.06C71.5086 20.06 71.0386 20.19 70.5986 20.45C70.1586 20.69 69.7786 21.03 69.4586 21.47C69.1586 21.91 68.9586 22.42 68.8586 23H75.0986ZM89.0357 32.21C87.5357 32.21 86.2157 31.88 85.0757 31.22C83.9357 30.56 83.0457 29.64 82.4057 28.46C81.7857 27.28 81.4757 25.92 81.4757 24.38C81.4757 22.9 81.7857 21.59 82.4057 20.45C83.0457 19.31 83.9157 18.42 85.0157 17.78C86.1157 17.12 87.3757 16.79 88.7957 16.79C90.2357 16.79 91.5057 17.1 92.6057 17.72C93.7057 18.34 94.5557 19.21 95.1557 20.33C95.7757 21.43 96.0857 22.72 96.0857 24.2C96.0857 24.42 96.0657 24.67 96.0257 24.95C96.0057 25.21 95.9757 25.49 95.9357 25.79H85.6157C85.6957 26.43 85.8957 26.98 86.2157 27.44C86.5557 27.88 86.9657 28.23 87.4457 28.49C87.9457 28.73 88.5057 28.85 89.1257 28.85C89.8657 28.85 90.5257 28.7 91.1057 28.4C91.7057 28.1 92.1357 27.69 92.3957 27.17L95.7857 28.19C95.1857 29.47 94.2957 30.46 93.1157 31.16C91.9357 31.86 90.5757 32.21 89.0357 32.21ZM91.8857 23C91.8657 22.44 91.7157 21.94 91.4357 21.5C91.1557 21.04 90.7857 20.69 90.3257 20.45C89.8657 20.19 89.3557 20.06 88.7957 20.06C88.2957 20.06 87.8257 20.19 87.3857 20.45C86.9457 20.69 86.5657 21.03 86.2457 21.47C85.9457 21.91 85.7457 22.42 85.6457 23H91.8857ZM99.0128 10.4H102.853V32H99.0128V10.4ZM115.362 32L115.062 30.17C114.562 30.79 113.992 31.28 113.352 31.64C112.732 32 111.892 32.18 110.832 32.18C109.832 32.18 108.952 32.01 108.192 31.67C107.452 31.31 106.872 30.82 106.452 30.2C106.032 29.56 105.822 28.81 105.822 27.95C105.822 26.69 106.272 25.65 107.172 24.83C108.092 23.99 109.472 23.46 111.312 23.24L115.062 22.82V21.77C115.062 21.35 114.872 20.96 114.492 20.6C114.112 20.24 113.512 20.06 112.692 20.06C111.972 20.06 111.342 20.24 110.802 20.6C110.282 20.94 109.932 21.46 109.752 22.16L106.452 20.96C106.852 19.62 107.612 18.59 108.732 17.87C109.852 17.15 111.232 16.79 112.872 16.79C114.872 16.79 116.372 17.29 117.372 18.29C118.392 19.27 118.902 20.57 118.902 22.19V32H115.362ZM115.062 25.49L111.822 25.91C111.162 25.99 110.662 26.19 110.322 26.51C109.982 26.81 109.812 27.18 109.812 27.62C109.812 28.04 109.982 28.4 110.322 28.7C110.662 28.98 111.142 29.12 111.762 29.12C112.462 29.12 113.052 28.99 113.532 28.73C114.032 28.47 114.412 28.09 114.672 27.59C114.932 27.09 115.062 26.47 115.062 25.73V25.49ZM122.421 17H125.901L126.171 18.53C126.651 17.99 127.231 17.57 127.911 17.27C128.611 16.95 129.361 16.79 130.161 16.79C131.341 16.79 132.341 17.04 133.161 17.54C134.001 18.04 134.641 18.77 135.081 19.73C135.541 20.67 135.771 21.84 135.771 23.24V32H131.901V23.75C131.901 22.59 131.671 21.72 131.211 21.14C130.751 20.56 130.061 20.27 129.141 20.27C128.201 20.27 127.481 20.57 126.981 21.17C126.501 21.75 126.261 22.62 126.261 23.78V32H122.421V17ZM139.417 11H143.467V19.67H152.767V11H156.817V32H152.767V23.06H143.467V32H139.417V11ZM173.882 32H170.372L170.132 30.44C169.632 31 169.032 31.44 168.332 31.76C167.652 32.06 166.922 32.21 166.142 32.21C164.982 32.21 163.982 31.96 163.142 31.46C162.302 30.96 161.652 30.24 161.192 29.3C160.732 28.34 160.502 27.16 160.502 25.76V17H164.372V25.28C164.372 26.42 164.592 27.29 165.032 27.89C165.492 28.47 166.192 28.76 167.132 28.76C168.072 28.76 168.792 28.46 169.292 27.86C169.792 27.26 170.042 26.39 170.042 25.25V17H173.882V32ZM180.918 19.25C181.378 18.57 182.028 17.99 182.868 17.51C183.728 17.03 184.738 16.79 185.898 16.79C187.218 16.79 188.368 17.11 189.348 17.75C190.348 18.37 191.128 19.26 191.688 20.42C192.268 21.58 192.558 22.94 192.558 24.5C192.558 26.06 192.268 27.42 191.688 28.58C191.128 29.72 190.348 30.61 189.348 31.25C188.348 31.89 187.198 32.21 185.898 32.21C184.858 32.21 183.938 32.01 183.138 31.61C182.338 31.19 181.718 30.7 181.278 30.14L181.038 32H177.558V10.4H181.398V19.31L180.918 19.25ZM188.418 24.5C188.418 23.24 188.088 22.23 187.428 21.47C186.788 20.69 185.948 20.3 184.908 20.3C184.268 20.3 183.678 20.47 183.138 20.81C182.618 21.13 182.198 21.6 181.878 22.22C181.558 22.84 181.398 23.6 181.398 24.5C181.398 25.4 181.558 26.16 181.878 26.78C182.198 27.4 182.618 27.88 183.138 28.22C183.678 28.54 184.268 28.7 184.908 28.7C185.948 28.7 186.788 28.32 187.428 27.56C188.088 26.78 188.418 25.76 188.418 24.5Z" fill="white"></path></svg>